<?xml version="1.0" standalone="no"?>
<!DOCTYPE svg PUBLIC "-//W3C//DTD SVG 20010904//EN"
 "http://www.w3.org/TR/2001/REC-SVG-20010904/DTD/svg10.dtd">
<svg version="1.0" xmlns="http://www.w3.org/2000/svg"
 width="300.000000pt" height="34.000000pt" viewBox="0 0 348.000000 64.000000"
 preserveAspectRatio="xMidYMid meet">

<g transform="translate(0.000000,64.000000) scale(0.100000,-0.100000)"
fill="#000000" stroke="none">
<path d="M1270 566 c-45 -12 -45 -12 -27 -30 14 -14 13 -23 -3 -85 -9 -38 -21
-74 -24 -80 -4 -6 -30 -11 -58 -11 -45 0 -54 -4 -83 -34 -52 -56 -55 -139 -6
-165 28 -16 29 -15 72 31 l38 42 -5 -36 c-7 -43 6 -54 43 -36 30 15 42 38 19
38 -8 0 -17 4 -20 9 -7 10 72 322 86 338 17 21 4 29 -32 19z m-70 -244 c0 -21
-44 -85 -78 -116 -44 -39 -69 12 -37 74 26 51 115 83 115 42z"/>
<path d="M3192 565 c-38 -9 -41 -12 -27 -26 14 -14 11 -32 -30 -180 -24 -90
-45 -172 -45 -181 0 -27 43 -27 73 -1 22 21 22 33 -1 33 -10 0 -21 3 -24 6 -9
8 70 302 89 330 9 14 14 26 12 27 -2 2 -23 -2 -47 -8z"/>
<path d="M160 463 c1 -4 7 -19 15 -33 20 -35 20 -209 0 -236 -25 -33 -18 -44
25 -44 43 0 53 17 25 40 -18 15 -22 170 -4 170 6 0 31 -45 57 -100 26 -55 49
-100 52 -100 3 0 28 46 55 102 28 57 55 101 60 98 6 -3 10 -39 10 -81 0 -59
-4 -81 -18 -96 -22 -25 -13 -33 34 -33 44 0 57 14 35 39 -13 14 -16 41 -16
132 0 75 4 119 12 127 17 17 3 25 -28 15 -19 -6 -32 -22 -45 -58 -34 -89 -74
-160 -89 -160 -9 0 -32 40 -60 102 -31 70 -51 104 -65 109 -47 14 -55 15 -55
7z"/>
<path d="M1660 462 c0 -5 7 -15 15 -22 12 -10 15 -38 15 -130 0 -92 -3 -120
-15 -130 -25 -21 -17 -30 25 -30 41 0 57 21 25 34 -12 4 -15 25 -15 100 0 52
4 97 9 101 5 3 51 -46 101 -109 50 -63 98 -117 106 -120 12 -4 14 18 14 138 0
119 3 145 15 150 29 11 14 23 -30 24 -49 0 -56 -6 -25 -26 18 -11 20 -23 20
-106 0 -52 -4 -97 -8 -100 -4 -3 -42 38 -83 91 -40 52 -81 103 -89 113 -16 20
-80 38 -80 22z"/>
<path d="M2310 380 c-6 -11 -20 -20 -30 -20 -24 0 -25 -9 -6 -24 12 -9 12 -21
-4 -81 -19 -74 -18 -90 7 -99 18 -7 61 18 70 40 8 22 -7 32 -18 11 -6 -9 -17
-17 -26 -17 -17 0 -13 37 10 109 10 30 17 36 45 39 37 4 44 22 7 22 -18 0 -25
5 -25 20 0 11 -4 20 -10 20 -5 0 -14 -9 -20 -20z"/>
<path d="M2165 363 c-47 -12 -84 -37 -114 -78 -36 -51 -49 -98 -31 -120 10
-13 16 -13 39 0 15 7 33 21 40 29 18 22 34 20 26 -3 -3 -10 1 -23 9 -30 11 -9
20 -6 45 15 37 31 41 51 6 28 -23 -15 -25 -15 -31 0 -5 14 6 55 43 154 5 12 2
13 -32 5z m-15 -57 c0 -34 -84 -125 -100 -109 -18 17 -5 57 34 97 39 42 66 47
66 12z"/>
<path d="M2975 355 c-69 -24 -141 -124 -127 -177 7 -29 31 -28 66 2 41 36 46
37 46 6 0 -38 28 -40 61 -5 32 35 31 53 -1 24 -19 -17 -20 -17 -26 0 -4 10 3
48 14 84 30 93 32 89 -33 66z m10 -35 c9 -15 -41 -97 -71 -117 -58 -38 -47 44
12 97 37 32 49 36 59 20z"/>
<path d="M582 344 c-28 -19 -30 -39 -3 -24 30 16 31 0 5 -60 -28 -65 -30 -96
-8 -104 12 -5 30 8 60 39 24 25 47 45 50 45 4 0 4 -17 0 -38 -7 -49 -1 -55 35
-36 33 17 40 39 9 29 -26 -8 -26 15 0 74 22 48 27 95 8 89 -6 -2 -29 -33 -50
-69 -48 -78 -74 -107 -87 -94 -6 6 1 34 16 72 35 83 20 116 -35 77z"/>
<path d="M810 340 c-14 -10 -22 -22 -18 -26 4 -4 14 -1 23 6 13 11 15 9 15
-12 0 -14 -10 -48 -21 -76 -22 -52 -20 -86 3 -77 7 3 27 31 45 63 68 123 130
144 68 22 -39 -76 -29 -102 28 -73 31 16 37 38 7 28 -25 -8 -25 7 0 62 47 105
13 141 -57 58 -20 -25 -41 -45 -46 -45 -4 0 -5 20 -1 45 7 51 -4 58 -46 25z"/>
<path d="M1357 340 c-32 -25 -62 -100 -53 -134 3 -14 17 -33 31 -42 20 -13 28
-14 52 -2 34 16 70 69 79 114 13 72 -51 109 -109 64z m78 -33 c12 -47 -31
-117 -72 -117 -41 0 -43 44 -3 108 24 40 66 45 75 9z"/>
<path d="M2442 344 c-28 -19 -30 -39 -3 -24 30 16 31 0 5 -60 -28 -65 -30 -96
-8 -104 12 -5 30 8 60 39 24 25 47 45 50 45 4 0 4 -17 0 -38 -7 -49 -1 -55 35
-36 33 17 40 39 9 29 -27 -9 -26 15 4 85 23 53 24 84 3 77 -6 -2 -28 -32 -49
-68 -48 -78 -74 -107 -87 -94 -6 6 1 34 16 72 35 83 20 116 -35 77z"/>
<path d="M2674 349 c-4 -7 -2 -15 4 -17 17 -5 15 -41 -7 -105 -17 -49 -18 -57
-5 -68 12 -10 17 -6 27 22 7 18 23 56 37 84 22 43 29 50 55 50 23 0 31 5 33
23 5 33 -28 29 -63 -8 -36 -37 -44 -38 -42 -3 2 29 -25 44 -39 22z"/>
</g>
</svg>
