<?xml version="1.0" standalone="no"?>
<!DOCTYPE svg PUBLIC "-//W3C//DTD SVG 20010904//EN"
 "http://www.w3.org/TR/2001/REC-SVG-20010904/DTD/svg10.dtd">
<svg version="1.0" xmlns="http://www.w3.org/2000/svg"
 width="500.000000pt" height="500.000000pt" viewBox="0 0 500.000000 500.000000"
 preserveAspectRatio="xMidYMid meet">

<g transform="translate(0.000000,500.000000) scale(0.100000,-0.100000)"
fill="#000000" stroke="none">
<path d="M2190 2777 c-45 -13 -43 -12 -29 -35 10 -16 9 -33 -7 -93 l-19 -74
-57 -5 c-42 -4 -63 -12 -82 -29 -48 -45 -58 -128 -20 -165 24 -25 43 -19 84
26 l39 41 -6 -41 c-5 -37 -3 -42 13 -42 22 0 64 27 64 41 0 5 -9 9 -20 9 -11
0 -20 5 -20 11 0 23 71 296 86 328 8 18 14 34 12 36 -2 1 -19 -3 -38 -8z m-72
-248 c4 -23 -79 -123 -106 -127 -19 -3 -22 1 -22 36 0 61 51 115 105 109 11
-1 21 -9 23 -18z"/>
<path d="M4130 2780 c-8 -5 -26 -10 -39 -10 -23 0 -23 -1 -8 -18 16 -17 15
-24 -7 -98 -40 -135 -68 -263 -62 -279 8 -21 29 -19 60 6 26 21 27 43 2 33 -8
-3 -17 -1 -20 5 -9 15 62 288 85 329 26 45 23 54 -11 32z"/>
<path d="M1070 2673 c0 -3 8 -15 18 -26 14 -16 17 -38 17 -127 0 -89 -3 -111
-17 -127 -26 -29 -23 -33 27 -33 48 0 53 4 31 29 -21 24 -25 181 -5 181 9 0
59 -100 95 -189 9 -22 15 -13 64 88 29 61 57 111 60 111 24 0 18 -171 -6 -191
-24 -20 -15 -29 29 -29 53 0 62 8 40 33 -15 16 -18 38 -17 133 0 77 5 118 14
129 17 21 7 29 -25 18 -20 -6 -35 -28 -68 -104 -53 -121 -63 -137 -76 -124 -5
6 -30 55 -55 110 -35 79 -51 103 -73 112 -32 14 -53 16 -53 6z"/>
<path d="M2576 2672 c-3 -5 3 -17 14 -27 18 -16 20 -31 20 -128 0 -100 -2
-113 -22 -134 l-21 -23 46 0 c49 0 58 9 32 30 -11 9 -15 35 -15 106 0 55 4 94
10 94 5 0 38 -35 72 -77 83 -101 129 -153 137 -153 4 0 5 60 3 134 -4 126 -3
135 17 155 11 11 21 23 21 24 0 2 -20 4 -45 4 -48 0 -53 -3 -31 -21 17 -13 32
-201 17 -210 -5 -3 -50 46 -101 109 -50 63 -97 115 -104 115 -8 0 -21 3 -29 6
-8 3 -18 1 -21 -4z"/>
<path d="M3227 2590 c-3 -12 -14 -20 -25 -20 -28 0 -37 -16 -13 -23 19 -5 19
-6 -1 -81 -21 -81 -16 -106 21 -106 20 0 61 40 61 58 0 17 -20 15 -26 -3 -8
-20 -34 -19 -34 1 0 25 22 108 33 122 5 6 22 12 38 12 37 0 38 18 2 22 -20 2
-27 8 -25 21 4 24 -24 22 -31 -3z"/>
<path d="M3071 2568 c-50 -14 -77 -35 -111 -86 -33 -50 -41 -109 -14 -119 9
-3 31 7 54 26 21 17 41 31 43 31 2 0 2 -11 -1 -25 -7 -38 23 -43 59 -9 31 30
41 58 11 31 -48 -43 -55 1 -17 95 14 34 25 63 25 65 0 4 -10 3 -49 -9z m-5
-42 c7 -19 -11 -53 -49 -93 -39 -41 -57 -42 -57 -3 0 20 12 41 38 70 41 42 59
49 68 26z"/>
<path d="M3895 2565 c-76 -27 -158 -150 -125 -190 17 -21 24 -19 63 15 19 17
37 30 40 30 3 0 7 -12 9 -27 4 -36 22 -39 53 -9 30 30 35 58 5 31 -38 -34 -44
-5 -16 77 35 101 37 96 -29 73z m10 -35 c9 -15 -41 -97 -71 -117 -62 -40 -51
41 13 97 36 32 48 36 58 20z"/>
<path d="M1503 2555 c-29 -20 -31 -40 -3 -25 17 9 20 8 20 -10 0 -11 -9 -39
-21 -61 -22 -43 -22 -90 -1 -97 7 -2 33 17 58 42 24 25 46 46 49 46 4 0 3 -20
-1 -45 -5 -35 -3 -45 7 -45 20 1 65 37 57 46 -4 4 -15 1 -24 -7 -15 -12 -16
-10 -11 21 3 19 13 56 23 82 16 40 16 49 5 60 -9 9 -15 9 -18 2 -10 -29 -90
-148 -105 -158 -29 -18 -33 3 -9 57 40 89 28 130 -26 92z"/>
<path d="M1733 2553 c-28 -19 -30 -37 -3 -28 27 8 27 -18 0 -76 -39 -86 -10
-128 31 -46 32 62 80 127 96 127 19 0 16 -18 -12 -75 -13 -27 -25 -58 -25 -68
0 -26 26 -32 55 -13 30 20 35 42 5 26 -17 -9 -20 -8 -20 9 0 10 9 38 20 62 44
97 11 130 -55 56 -23 -26 -44 -47 -49 -47 -4 0 -4 20 0 45 7 50 -3 57 -43 28z"/>
<path d="M2275 2548 c-72 -57 -71 -188 2 -188 57 0 126 114 104 173 -16 42
-63 49 -106 15z m73 -24 c18 -33 -9 -103 -49 -125 -33 -17 -52 0 -46 42 10 73
71 126 95 83z"/>
<path d="M3363 2555 c-29 -20 -31 -40 -3 -25 17 9 20 8 20 -10 0 -11 -9 -39
-21 -61 -22 -43 -22 -90 -1 -97 7 -2 33 17 58 42 24 25 46 46 49 46 4 0 3 -20
-1 -45 -5 -35 -3 -45 7 -45 20 1 65 37 57 46 -4 4 -15 1 -24 -7 -15 -12 -16
-10 -11 21 3 19 13 56 23 82 16 40 16 49 5 60 -9 9 -15 9 -18 2 -10 -29 -90
-148 -105 -158 -29 -18 -33 3 -9 57 40 89 28 130 -26 92z"/>
<path d="M3594 2559 c-4 -7 -2 -15 4 -17 18 -6 15 -38 -10 -104 -16 -44 -18
-62 -10 -70 16 -16 26 -3 42 47 7 22 23 57 36 78 20 30 30 37 52 35 18 -2 27
2 30 15 7 35 -28 31 -70 -9 l-40 -39 4 35 c2 26 -1 35 -14 38 -9 2 -20 -3 -24
-9z"/>
</g>
</svg>
